<svg width="146" height="9" viewBox="0 0 146 9" fill="none" xmlns="http://www.w3.org/2000/svg">
<path d="M3.672 7.081C3.216 7.081 2.79 7 2.394 6.838C1.998 6.67 1.65 6.439 1.35 6.145C1.056 5.845 0.825 5.497 0.657 5.101C0.495 4.705 0.414 4.279 0.414 3.823C0.414 3.361 0.495 2.935 0.657 2.545C0.825 2.149 1.056 1.804 1.35 1.51C1.65 1.216 1.995 0.988 2.385 0.826C2.781 0.658 3.21 0.574 3.672 0.574C4.134 0.574 4.56 0.658 4.95 0.826C5.346 0.988 5.691 1.216 5.985 1.51C6.279 1.804 6.507 2.149 6.669 2.545C6.837 2.935 6.921 3.361 6.921 3.823C6.921 4.279 6.837 4.705 6.669 5.101C6.507 5.497 6.279 5.845 5.985 6.145C5.691 6.439 5.346 6.67 4.95 6.838C4.56 7 4.134 7.081 3.672 7.081ZM3.672 6.685C4.074 6.685 4.446 6.613 4.788 6.469C5.136 6.325 5.436 6.124 5.688 5.866C5.946 5.602 6.147 5.299 6.291 4.957C6.435 4.609 6.507 4.231 6.507 3.823C6.507 3.415 6.435 3.04 6.291 2.698C6.147 2.35 5.946 2.047 5.688 1.789C5.436 1.531 5.136 1.33 4.788 1.186C4.446 1.042 4.074 0.97 3.672 0.97C3.264 0.97 2.886 1.042 2.538 1.186C2.196 1.33 1.896 1.531 1.638 1.789C1.386 2.047 1.188 2.35 1.044 2.698C0.9 3.04 0.828 3.415 0.828 3.823C0.828 4.231 0.9 4.609 1.044 4.957C1.188 5.299 1.386 5.602 1.638 5.866C1.896 6.124 2.196 6.325 2.538 6.469C2.886 6.613 3.264 6.685 3.672 6.685ZM3.789 5.767C3.207 5.767 2.748 5.587 2.412 5.227C2.082 4.867 1.917 4.39 1.917 3.796C1.917 3.208 2.082 2.743 2.412 2.401C2.748 2.059 3.207 1.888 3.789 1.888C3.993 1.888 4.197 1.921 4.401 1.987C4.605 2.053 4.788 2.146 4.95 2.266C5.004 2.302 5.04 2.347 5.058 2.401C5.076 2.455 5.079 2.509 5.067 2.563C5.055 2.611 5.031 2.653 4.995 2.689C4.959 2.725 4.914 2.746 4.86 2.752C4.806 2.758 4.746 2.74 4.68 2.698C4.536 2.602 4.392 2.533 4.248 2.491C4.104 2.449 3.963 2.428 3.825 2.428C3.429 2.428 3.12 2.548 2.898 2.788C2.676 3.028 2.565 3.367 2.565 3.805C2.565 4.243 2.676 4.591 2.898 4.849C3.12 5.101 3.429 5.227 3.825 5.227C3.963 5.227 4.104 5.206 4.248 5.164C4.392 5.122 4.539 5.05 4.689 4.948C4.767 4.9 4.836 4.888 4.896 4.912C4.962 4.93 5.01 4.969 5.04 5.029C5.07 5.083 5.079 5.146 5.067 5.218C5.055 5.284 5.016 5.338 4.95 5.38C4.788 5.506 4.602 5.602 4.392 5.668C4.188 5.734 3.987 5.767 3.789 5.767ZM11.3422 6.199C11.2762 6.229 11.2072 6.235 11.1352 6.217C11.0692 6.193 11.0182 6.148 10.9822 6.082L10.2442 4.858C10.1962 4.774 10.1722 4.693 10.1722 4.615C10.1722 4.531 10.1962 4.447 10.2442 4.363L10.9732 3.148C11.0152 3.076 11.0692 3.031 11.1352 3.013C11.2012 2.989 11.2672 2.992 11.3332 3.022C11.4172 3.058 11.4712 3.115 11.4952 3.193C11.5192 3.271 11.5102 3.355 11.4682 3.445L10.8832 4.615L11.4682 5.776C11.5102 5.866 11.5192 5.953 11.4952 6.037C11.4772 6.115 11.4262 6.169 11.3422 6.199ZM12.9712 6.199C12.9052 6.229 12.8362 6.235 12.7642 6.217C12.6982 6.193 12.6472 6.148 12.6112 6.082L11.8732 4.858C11.8252 4.774 11.8012 4.693 11.8012 4.615C11.8012 4.531 11.8252 4.447 11.8732 4.363L12.6022 3.148C12.6442 3.076 12.6982 3.031 12.7642 3.013C12.8302 2.989 12.8962 2.992 12.9622 3.022C13.0462 3.058 13.1002 3.115 13.1242 3.193C13.1482 3.271 13.1392 3.355 13.0972 3.445L12.5122 4.615L13.0972 5.776C13.1392 5.866 13.1482 5.953 13.1242 6.037C13.1062 6.115 13.0552 6.169 12.9712 6.199ZM14.7298 7.063C14.6818 7.063 14.6368 7.054 14.5948 7.036C14.5588 7.024 14.5258 7 14.4958 6.964C14.4718 6.928 14.4508 6.889 14.4328 6.847C14.4208 6.799 14.4148 6.742 14.4148 6.676V0.952C14.4148 0.838 14.4448 0.751 14.5048 0.691C14.5648 0.625 14.6518 0.592 14.7658 0.592C14.8738 0.592 14.9578 0.625 15.0178 0.691C15.0778 0.751 15.1078 0.838 15.1078 0.952V6.046H14.9098L18.8158 0.817C18.8698 0.733 18.9238 0.676 18.9778 0.646C19.0378 0.61 19.1128 0.592 19.2028 0.592C19.2688 0.592 19.3228 0.607 19.3648 0.637C19.4068 0.661 19.4398 0.7 19.4638 0.754C19.4878 0.808 19.4998 0.873999 19.4998 0.952V6.694C19.4998 6.814 19.4698 6.907 19.4098 6.973C19.3558 7.033 19.2748 7.063 19.1668 7.063C19.0528 7.063 18.9658 7.033 18.9058 6.973C18.8458 6.907 18.8158 6.814 18.8158 6.694V1.609H19.0138L15.1078 6.838C15.0478 6.916 14.9938 6.973 14.9458 7.009C14.8978 7.045 14.8258 7.063 14.7298 7.063ZM21.3829 7.063C21.2629 7.063 21.1699 7.03 21.1039 6.964C21.0439 6.898 21.0139 6.805 21.0139 6.685V2.932C21.0139 2.806 21.0439 2.713 21.1039 2.653C21.1699 2.593 21.2629 2.563 21.3829 2.563C21.4969 2.563 21.5839 2.593 21.6439 2.653C21.7099 2.713 21.7429 2.806 21.7429 2.932V4.444H24.1279V2.932C24.1279 2.806 24.1579 2.713 24.2179 2.653C24.2839 2.593 24.3739 2.563 24.4879 2.563C24.6019 2.563 24.6919 2.593 24.7579 2.653C24.8239 2.713 24.8569 2.806 24.8569 2.932V6.685C24.8569 6.805 24.8239 6.898 24.7579 6.964C24.6919 7.03 24.6019 7.063 24.4879 7.063C24.3739 7.063 24.2839 7.03 24.2179 6.964C24.1579 6.898 24.1279 6.805 24.1279 6.685V5.038H21.7429V6.685C21.7429 6.805 21.7129 6.898 21.6529 6.964C21.5929 7.03 21.5029 7.063 21.3829 7.063ZM27.5742 7.063C27.4602 7.063 27.3702 7.03 27.3042 6.964C27.2382 6.898 27.2052 6.805 27.2052 6.685V3.211H25.8912C25.6632 3.211 25.5492 3.112 25.5492 2.914C25.5492 2.824 25.5792 2.755 25.6392 2.707C25.6992 2.653 25.7832 2.626 25.8912 2.626H29.2572C29.4792 2.626 29.5902 2.722 29.5902 2.914C29.5902 3.01 29.5602 3.085 29.5002 3.139C29.4462 3.187 29.3652 3.211 29.2572 3.211H27.9342V6.685C27.9342 6.805 27.9042 6.898 27.8442 6.964C27.7902 7.03 27.7002 7.063 27.5742 7.063ZM32.2576 7.081C31.7956 7.081 31.3966 6.991 31.0606 6.811C30.7306 6.625 30.4726 6.364 30.2866 6.028C30.1066 5.692 30.0166 5.29 30.0166 4.822C30.0166 4.366 30.1066 3.97 30.2866 3.634C30.4666 3.292 30.7126 3.025 31.0246 2.833C31.3426 2.641 31.7086 2.545 32.1226 2.545C32.4166 2.545 32.6806 2.596 32.9146 2.698C33.1486 2.794 33.3466 2.935 33.5086 3.121C33.6766 3.307 33.8026 3.532 33.8866 3.796C33.9766 4.06 34.0216 4.357 34.0216 4.687C34.0216 4.783 33.9946 4.855 33.9406 4.903C33.8866 4.945 33.8086 4.966 33.7066 4.966H30.5746V4.489H33.5356L33.3916 4.606C33.3916 4.282 33.3436 4.009 33.2476 3.787C33.1516 3.559 33.0106 3.385 32.8246 3.265C32.6446 3.145 32.4166 3.085 32.1406 3.085C31.8346 3.085 31.5736 3.157 31.3576 3.301C31.1476 3.439 30.9886 3.634 30.8806 3.886C30.7726 4.132 30.7186 4.42 30.7186 4.75V4.804C30.7186 5.356 30.8506 5.776 31.1146 6.064C31.3846 6.352 31.7656 6.496 32.2576 6.496C32.4616 6.496 32.6626 6.469 32.8606 6.415C33.0646 6.361 33.2626 6.271 33.4546 6.145C33.5386 6.091 33.6136 6.067 33.6796 6.073C33.7516 6.073 33.8086 6.094 33.8506 6.136C33.8926 6.172 33.9196 6.22 33.9316 6.28C33.9496 6.334 33.9436 6.394 33.9136 6.46C33.8896 6.526 33.8386 6.583 33.7606 6.631C33.5626 6.775 33.3286 6.886 33.0586 6.964C32.7886 7.042 32.5216 7.081 32.2576 7.081ZM35.5245 8.683C35.4045 8.683 35.3145 8.65 35.2545 8.584C35.1945 8.524 35.1645 8.434 35.1645 8.314V2.932C35.1645 2.812 35.1945 2.722 35.2545 2.662C35.3145 2.596 35.4015 2.563 35.5155 2.563C35.6355 2.563 35.7255 2.596 35.7855 2.662C35.8515 2.722 35.8845 2.812 35.8845 2.932V3.787L35.7855 3.661C35.8815 3.319 36.0705 3.049 36.3525 2.851C36.6405 2.647 36.9825 2.545 37.3785 2.545C37.7685 2.545 38.1075 2.638 38.3955 2.824C38.6895 3.004 38.9145 3.265 39.0705 3.607C39.2325 3.943 39.3135 4.345 39.3135 4.813C39.3135 5.275 39.2325 5.677 39.0705 6.019C38.9145 6.355 38.6925 6.616 38.4045 6.802C38.1165 6.988 37.7745 7.081 37.3785 7.081C36.9825 7.081 36.6435 6.982 36.3615 6.784C36.0795 6.58 35.8875 6.31 35.7855 5.974H35.8935V8.314C35.8935 8.434 35.8605 8.524 35.7945 8.584C35.7285 8.65 35.6385 8.683 35.5245 8.683ZM37.2255 6.496C37.5015 6.496 37.7385 6.43 37.9365 6.298C38.1405 6.166 38.2965 5.974 38.4045 5.722C38.5185 5.47 38.5755 5.167 38.5755 4.813C38.5755 4.267 38.4525 3.85 38.2065 3.562C37.9665 3.274 37.6395 3.13 37.2255 3.13C36.9555 3.13 36.7185 3.196 36.5145 3.328C36.3105 3.454 36.1515 3.643 36.0375 3.895C35.9295 4.141 35.8755 4.447 35.8755 4.813C35.8755 5.353 35.9985 5.77 36.2445 6.064C36.4905 6.352 36.8175 6.496 37.2255 6.496ZM40.8595 7.063C40.7395 7.063 40.6465 7.03 40.5805 6.964C40.5205 6.898 40.4905 6.805 40.4905 6.685V2.932C40.4905 2.806 40.5205 2.713 40.5805 2.653C40.6465 2.593 40.7395 2.563 40.8595 2.563C40.9735 2.563 41.0605 2.593 41.1205 2.653C41.1865 2.713 41.2195 2.806 41.2195 2.932V4.444H43.6045V2.932C43.6045 2.806 43.6345 2.713 43.6945 2.653C43.7605 2.593 43.8505 2.563 43.9645 2.563C44.0785 2.563 44.1685 2.593 44.2345 2.653C44.3005 2.713 44.3335 2.806 44.3335 2.932V6.685C44.3335 6.805 44.3005 6.898 44.2345 6.964C44.1685 7.03 44.0785 7.063 43.9645 7.063C43.8505 7.063 43.7605 7.03 43.6945 6.964C43.6345 6.898 43.6045 6.805 43.6045 6.685V5.038H41.2195V6.685C41.2195 6.805 41.1895 6.898 41.1295 6.964C41.0695 7.03 40.9795 7.063 40.8595 7.063ZM47.7527 7.081C47.2907 7.081 46.8917 6.991 46.5557 6.811C46.2257 6.625 45.9677 6.364 45.7817 6.028C45.6017 5.692 45.5117 5.29 45.5117 4.822C45.5117 4.366 45.6017 3.97 45.7817 3.634C45.9617 3.292 46.2077 3.025 46.5197 2.833C46.8377 2.641 47.2037 2.545 47.6177 2.545C47.9117 2.545 48.1757 2.596 48.4097 2.698C48.6437 2.794 48.8417 2.935 49.0037 3.121C49.1717 3.307 49.2977 3.532 49.3817 3.796C49.4717 4.06 49.5167 4.357 49.5167 4.687C49.5167 4.783 49.4897 4.855 49.4357 4.903C49.3817 4.945 49.3037 4.966 49.2017 4.966H46.0697V4.489H49.0307L48.8867 4.606C48.8867 4.282 48.8387 4.009 48.7427 3.787C48.6467 3.559 48.5057 3.385 48.3197 3.265C48.1397 3.145 47.9117 3.085 47.6357 3.085C47.3297 3.085 47.0687 3.157 46.8527 3.301C46.6427 3.439 46.4837 3.634 46.3757 3.886C46.2677 4.132 46.2137 4.42 46.2137 4.75V4.804C46.2137 5.356 46.3457 5.776 46.6097 6.064C46.8797 6.352 47.2607 6.496 47.7527 6.496C47.9567 6.496 48.1577 6.469 48.3557 6.415C48.5597 6.361 48.7577 6.271 48.9497 6.145C49.0337 6.091 49.1087 6.067 49.1747 6.073C49.2467 6.073 49.3037 6.094 49.3457 6.136C49.3877 6.172 49.4147 6.22 49.4267 6.28C49.4447 6.334 49.4387 6.394 49.4087 6.46C49.3847 6.526 49.3337 6.583 49.2557 6.631C49.0577 6.775 48.8237 6.886 48.5537 6.964C48.2837 7.042 48.0167 7.081 47.7527 7.081ZM51.9287 7.063C51.8147 7.063 51.7247 7.03 51.6587 6.964C51.5927 6.898 51.5597 6.805 51.5597 6.685V3.211H50.2457C50.0177 3.211 49.9037 3.112 49.9037 2.914C49.9037 2.824 49.9337 2.755 49.9937 2.707C50.0537 2.653 50.1377 2.626 50.2457 2.626H53.6117C53.8337 2.626 53.9447 2.722 53.9447 2.914C53.9447 3.01 53.9147 3.085 53.8547 3.139C53.8007 3.187 53.7197 3.211 53.6117 3.211H52.2887V6.685C52.2887 6.805 52.2587 6.898 52.1987 6.964C52.1447 7.03 52.0547 7.063 51.9287 7.063ZM54.8297 4.903C54.7397 4.903 54.6647 4.876 54.6047 4.822C54.5447 4.762 54.5147 4.69 54.5147 4.606C54.5147 4.516 54.5447 4.444 54.6047 4.39C54.6647 4.33 54.7397 4.3 54.8297 4.3H56.8547C56.9387 4.3 57.0107 4.33 57.0707 4.39C57.1307 4.444 57.1607 4.516 57.1607 4.606C57.1607 4.69 57.1307 4.762 57.0707 4.822C57.0107 4.876 56.9387 4.903 56.8547 4.903H54.8297ZM58.7881 7.063C58.6861 7.063 58.6051 7.033 58.5451 6.973C58.4911 6.907 58.4641 6.82 58.4641 6.712V2.95C58.4641 2.866 58.4761 2.797 58.5001 2.743C58.5241 2.683 58.5601 2.638 58.6081 2.608C58.6561 2.578 58.7161 2.563 58.7881 2.563C58.8601 2.563 58.9201 2.575 58.9681 2.599C59.0161 2.617 59.0581 2.647 59.0941 2.689C59.1301 2.725 59.1601 2.77 59.1841 2.824L60.7141 5.551L62.2441 2.824C62.2681 2.77 62.2981 2.725 62.3341 2.689C62.3701 2.647 62.4121 2.617 62.4601 2.599C62.5081 2.575 62.5651 2.563 62.6311 2.563C62.7391 2.563 62.8201 2.596 62.8741 2.662C62.9281 2.722 62.9551 2.818 62.9551 2.95V6.712C62.9551 6.82 62.9281 6.907 62.8741 6.973C62.8201 7.033 62.7391 7.063 62.6311 7.063C62.5291 7.063 62.4481 7.033 62.3881 6.973C62.3341 6.907 62.3071 6.82 62.3071 6.712V3.463H62.5141L60.9751 6.163C60.9511 6.211 60.9181 6.253 60.8761 6.289C60.8341 6.319 60.7801 6.334 60.7141 6.334C60.6421 6.334 60.5851 6.316 60.5431 6.28C60.5071 6.244 60.4741 6.205 60.4441 6.163L58.9051 3.463H59.1121V6.712C59.1121 6.82 59.0821 6.907 59.0221 6.973C58.9681 7.033 58.8901 7.063 58.7881 7.063ZM65.7828 7.081C65.4828 7.081 65.2128 7.024 64.9728 6.91C64.7388 6.79 64.5528 6.628 64.4148 6.424C64.2768 6.22 64.2078 5.992 64.2078 5.74C64.2078 5.416 64.2888 5.161 64.4508 4.975C64.6188 4.789 64.8918 4.657 65.2698 4.579C65.6538 4.501 66.1758 4.462 66.8358 4.462H67.2408V4.939H66.8448C66.3588 4.939 65.9748 4.963 65.6928 5.011C65.4168 5.053 65.2218 5.128 65.1078 5.236C64.9998 5.344 64.9458 5.497 64.9458 5.695C64.9458 5.941 65.0298 6.142 65.1978 6.298C65.3718 6.454 65.6058 6.532 65.8998 6.532C66.1398 6.532 66.3498 6.475 66.5298 6.361C66.7158 6.247 66.8598 6.091 66.9618 5.893C67.0698 5.695 67.1238 5.467 67.1238 5.209V4.183C67.1238 3.811 67.0488 3.544 66.8988 3.382C66.7488 3.214 66.5028 3.13 66.1608 3.13C65.9508 3.13 65.7408 3.157 65.5308 3.211C65.3208 3.265 65.0988 3.352 64.8648 3.472C64.7808 3.514 64.7088 3.529 64.6488 3.517C64.5888 3.499 64.5408 3.466 64.5048 3.418C64.4688 3.37 64.4478 3.316 64.4418 3.256C64.4358 3.19 64.4478 3.127 64.4778 3.067C64.5138 3.007 64.5678 2.959 64.6398 2.923C64.9038 2.791 65.1648 2.695 65.4228 2.635C65.6808 2.575 65.9268 2.545 66.1608 2.545C66.5388 2.545 66.8508 2.608 67.0968 2.734C67.3428 2.854 67.5258 3.04 67.6458 3.292C67.7658 3.538 67.8258 3.856 67.8258 4.246V6.685C67.8258 6.805 67.7958 6.898 67.7358 6.964C67.6818 7.03 67.6008 7.063 67.4928 7.063C67.3788 7.063 67.2918 7.03 67.2318 6.964C67.1718 6.898 67.1418 6.805 67.1418 6.685V5.983H67.2228C67.1748 6.211 67.0818 6.406 66.9438 6.568C66.8118 6.73 66.6468 6.856 66.4488 6.946C66.2508 7.036 66.0288 7.081 65.7828 7.081ZM69.6173 7.063C69.4973 7.063 69.4043 7.03 69.3383 6.964C69.2783 6.892 69.2483 6.793 69.2483 6.667V3.04C69.2483 2.902 69.2843 2.8 69.3563 2.734C69.4283 2.662 69.5303 2.626 69.6623 2.626H72.0473C72.1613 2.626 72.2453 2.65 72.2993 2.698C72.3533 2.746 72.3803 2.818 72.3803 2.914C72.3803 3.01 72.3533 3.085 72.2993 3.139C72.2453 3.187 72.1613 3.211 72.0473 3.211H69.9773V6.667C69.9773 6.931 69.8573 7.063 69.6173 7.063ZM74.5455 7.081C74.2455 7.081 73.9755 7.024 73.7355 6.91C73.5015 6.79 73.3155 6.628 73.1775 6.424C73.0395 6.22 72.9705 5.992 72.9705 5.74C72.9705 5.416 73.0515 5.161 73.2135 4.975C73.3815 4.789 73.6545 4.657 74.0325 4.579C74.4165 4.501 74.9385 4.462 75.5985 4.462H76.0035V4.939H75.6075C75.1215 4.939 74.7375 4.963 74.4555 5.011C74.1795 5.053 73.9845 5.128 73.8705 5.236C73.7625 5.344 73.7085 5.497 73.7085 5.695C73.7085 5.941 73.7925 6.142 73.9605 6.298C74.1345 6.454 74.3685 6.532 74.6625 6.532C74.9025 6.532 75.1125 6.475 75.2925 6.361C75.4785 6.247 75.6225 6.091 75.7245 5.893C75.8325 5.695 75.8865 5.467 75.8865 5.209V4.183C75.8865 3.811 75.8115 3.544 75.6615 3.382C75.5115 3.214 75.2655 3.13 74.9235 3.13C74.7135 3.13 74.5035 3.157 74.2935 3.211C74.0835 3.265 73.8615 3.352 73.6275 3.472C73.5435 3.514 73.4715 3.529 73.4115 3.517C73.3515 3.499 73.3035 3.466 73.2675 3.418C73.2315 3.37 73.2105 3.316 73.2045 3.256C73.1985 3.19 73.2105 3.127 73.2405 3.067C73.2765 3.007 73.3305 2.959 73.4025 2.923C73.6665 2.791 73.9275 2.695 74.1855 2.635C74.4435 2.575 74.6895 2.545 74.9235 2.545C75.3015 2.545 75.6135 2.608 75.8595 2.734C76.1055 2.854 76.2885 3.04 76.4085 3.292C76.5285 3.538 76.5885 3.856 76.5885 4.246V6.685C76.5885 6.805 76.5585 6.898 76.4985 6.964C76.4445 7.03 76.3635 7.063 76.2555 7.063C76.1415 7.063 76.0545 7.03 75.9945 6.964C75.9345 6.898 75.9045 6.805 75.9045 6.685V5.983H75.9855C75.9375 6.211 75.8445 6.406 75.7065 6.568C75.5745 6.73 75.4095 6.856 75.2115 6.946C75.0135 7.036 74.7915 7.081 74.5455 7.081ZM79.46 7.081C79.148 7.081 78.845 7.045 78.551 6.973C78.257 6.901 78.005 6.796 77.795 6.658C77.723 6.61 77.672 6.556 77.642 6.496C77.618 6.436 77.609 6.376 77.615 6.316C77.621 6.256 77.642 6.205 77.678 6.163C77.72 6.121 77.774 6.097 77.84 6.091C77.912 6.079 77.987 6.1 78.065 6.154C78.257 6.274 78.473 6.364 78.713 6.424C78.959 6.484 79.202 6.514 79.442 6.514C79.88 6.514 80.192 6.451 80.378 6.325C80.564 6.193 80.657 6.007 80.657 5.767C80.657 5.533 80.576 5.356 80.414 5.236C80.258 5.116 80.036 5.056 79.748 5.056H78.965C78.869 5.056 78.791 5.032 78.731 4.984C78.677 4.93 78.65 4.861 78.65 4.777C78.65 4.693 78.677 4.627 78.731 4.579C78.791 4.531 78.869 4.507 78.965 4.507H79.658C79.916 4.507 80.12 4.447 80.27 4.327C80.426 4.207 80.504 4.042 80.504 3.832C80.504 3.61 80.423 3.436 80.261 3.31C80.099 3.178 79.826 3.112 79.442 3.112C79.208 3.112 78.983 3.139 78.767 3.193C78.551 3.241 78.344 3.322 78.146 3.436C78.038 3.49 77.948 3.508 77.876 3.49C77.804 3.466 77.75 3.421 77.714 3.355C77.678 3.289 77.672 3.217 77.696 3.139C77.72 3.061 77.777 2.998 77.867 2.95C78.101 2.812 78.359 2.71 78.641 2.644C78.923 2.578 79.22 2.545 79.532 2.545C80.084 2.545 80.498 2.653 80.774 2.869C81.056 3.085 81.197 3.388 81.197 3.778C81.197 4.054 81.101 4.288 80.909 4.48C80.717 4.672 80.462 4.786 80.144 4.822V4.705C80.51 4.717 80.801 4.822 81.017 5.02C81.239 5.212 81.35 5.47 81.35 5.794C81.35 6.184 81.191 6.496 80.873 6.73C80.555 6.964 80.084 7.081 79.46 7.081ZM82.8176 7.063C82.7516 7.063 82.6916 7.048 82.6376 7.018C82.5896 6.994 82.5506 6.952 82.5206 6.892C82.4966 6.832 82.4846 6.757 82.4846 6.667V2.923C82.4846 2.803 82.5146 2.713 82.5746 2.653C82.6346 2.593 82.7156 2.563 82.8176 2.563C82.9256 2.563 83.0066 2.593 83.0606 2.653C83.1206 2.713 83.1506 2.803 83.1506 2.923V6.307H82.9256L85.5446 2.797C85.5926 2.731 85.6496 2.677 85.7156 2.635C85.7816 2.587 85.8656 2.563 85.9676 2.563C86.0396 2.563 86.0996 2.575 86.1476 2.599C86.1956 2.623 86.2316 2.665 86.2556 2.725C86.2856 2.779 86.3006 2.854 86.3006 2.95V6.703C86.3006 6.817 86.2706 6.907 86.2106 6.973C86.1566 7.033 86.0756 7.063 85.9676 7.063C85.8596 7.063 85.7756 7.033 85.7156 6.973C85.6616 6.907 85.6346 6.817 85.6346 6.703V3.31H85.8596L83.2316 6.829C83.1896 6.889 83.1356 6.943 83.0696 6.991C83.0096 7.039 82.9256 7.063 82.8176 7.063ZM88.1095 7.063C87.9895 7.063 87.8965 7.03 87.8305 6.964C87.7705 6.898 87.7405 6.805 87.7405 6.685V2.932C87.7405 2.806 87.7705 2.713 87.8305 2.653C87.8965 2.593 87.9895 2.563 88.1095 2.563C88.2235 2.563 88.3105 2.593 88.3705 2.653C88.4365 2.713 88.4695 2.806 88.4695 2.932V4.444H90.8545V2.932C90.8545 2.806 90.8845 2.713 90.9445 2.653C91.0105 2.593 91.1005 2.563 91.2145 2.563C91.3285 2.563 91.4185 2.593 91.4845 2.653C91.5505 2.713 91.5835 2.806 91.5835 2.932V6.685C91.5835 6.805 91.5505 6.898 91.4845 6.964C91.4185 7.03 91.3285 7.063 91.2145 7.063C91.1005 7.063 91.0105 7.03 90.9445 6.964C90.8845 6.898 90.8545 6.805 90.8545 6.685V5.038H88.4695V6.685C88.4695 6.805 88.4395 6.898 88.3795 6.964C88.3195 7.03 88.2295 7.063 88.1095 7.063ZM95.811 7C95.679 7 95.577 6.967 95.505 6.901C95.439 6.829 95.406 6.727 95.406 6.595V1.06C95.406 0.928 95.439 0.829 95.505 0.763C95.577 0.691 95.679 0.655 95.811 0.655H97.548C98.574 0.655 99.366 0.925 99.924 1.465C100.482 2.005 100.761 2.791 100.761 3.823C100.761 4.339 100.689 4.795 100.545 5.191C100.407 5.581 100.2 5.911 99.924 6.181C99.648 6.451 99.312 6.655 98.916 6.793C98.52 6.931 98.064 7 97.548 7H95.811ZM96.144 6.37H97.494C97.914 6.37 98.277 6.316 98.583 6.208C98.895 6.1 99.153 5.941 99.357 5.731C99.567 5.521 99.723 5.257 99.825 4.939C99.927 4.615 99.978 4.243 99.978 3.823C99.978 2.977 99.771 2.344 99.357 1.924C98.943 1.498 98.322 1.285 97.494 1.285H96.144V6.37ZM103.805 7.081C103.379 7.081 103.01 6.988 102.698 6.802C102.386 6.616 102.143 6.355 101.969 6.019C101.801 5.677 101.717 5.275 101.717 4.813C101.717 4.465 101.765 4.153 101.861 3.877C101.957 3.595 102.098 3.355 102.284 3.157C102.47 2.959 102.689 2.809 102.941 2.707C103.199 2.599 103.487 2.545 103.805 2.545C104.231 2.545 104.6 2.638 104.912 2.824C105.224 3.01 105.464 3.274 105.632 3.616C105.806 3.952 105.893 4.351 105.893 4.813C105.893 5.161 105.845 5.473 105.749 5.749C105.653 6.025 105.512 6.265 105.326 6.469C105.14 6.667 104.918 6.82 104.66 6.928C104.408 7.03 104.123 7.081 103.805 7.081ZM103.805 6.496C104.075 6.496 104.312 6.43 104.516 6.298C104.72 6.166 104.876 5.974 104.984 5.722C105.098 5.47 105.155 5.167 105.155 4.813C105.155 4.267 105.032 3.85 104.786 3.562C104.546 3.274 104.219 3.13 103.805 3.13C103.529 3.13 103.289 3.196 103.085 3.328C102.887 3.454 102.731 3.643 102.617 3.895C102.509 4.141 102.455 4.447 102.455 4.813C102.455 5.353 102.578 5.77 102.824 6.064C103.07 6.352 103.397 6.496 103.805 6.496ZM108.923 8.701C108.605 8.701 108.293 8.662 107.987 8.584C107.687 8.512 107.414 8.395 107.168 8.233C107.096 8.191 107.048 8.14 107.024 8.08C107.006 8.02 107.003 7.96 107.015 7.9C107.027 7.846 107.054 7.795 107.096 7.747C107.138 7.705 107.186 7.678 107.24 7.666C107.3 7.654 107.36 7.663 107.42 7.693C107.684 7.855 107.936 7.966 108.176 8.026C108.416 8.086 108.653 8.116 108.887 8.116C109.313 8.116 109.634 8.002 109.85 7.774C110.072 7.546 110.183 7.216 110.183 6.784V5.767H110.273C110.183 6.115 109.991 6.391 109.697 6.595C109.409 6.799 109.07 6.901 108.68 6.901C108.278 6.901 107.93 6.811 107.636 6.631C107.342 6.445 107.114 6.187 106.952 5.857C106.796 5.527 106.718 5.146 106.718 4.714C106.718 4.39 106.763 4.096 106.853 3.832C106.943 3.562 107.072 3.334 107.24 3.148C107.414 2.956 107.621 2.809 107.861 2.707C108.107 2.599 108.38 2.545 108.68 2.545C109.076 2.545 109.418 2.647 109.706 2.851C109.994 3.049 110.18 3.319 110.264 3.661L110.174 3.769V2.932C110.174 2.812 110.204 2.722 110.264 2.662C110.33 2.596 110.42 2.563 110.534 2.563C110.654 2.563 110.744 2.596 110.804 2.662C110.864 2.722 110.894 2.812 110.894 2.932V6.685C110.894 7.351 110.726 7.852 110.39 8.188C110.06 8.53 109.571 8.701 108.923 8.701ZM108.815 6.307C109.097 6.307 109.34 6.244 109.544 6.118C109.748 5.986 109.904 5.8 110.012 5.56C110.126 5.32 110.183 5.038 110.183 4.714C110.183 4.228 110.06 3.844 109.814 3.562C109.568 3.274 109.235 3.13 108.815 3.13C108.539 3.13 108.299 3.196 108.095 3.328C107.891 3.454 107.732 3.637 107.618 3.877C107.51 4.111 107.456 4.39 107.456 4.714C107.456 5.2 107.579 5.587 107.825 5.875C108.071 6.163 108.401 6.307 108.815 6.307ZM112.756 7.063C112.63 7.063 112.531 7.03 112.459 6.964C112.393 6.892 112.36 6.79 112.36 6.658V1.06C112.36 0.928 112.393 0.829 112.459 0.763C112.531 0.691 112.633 0.655 112.765 0.655H116.032C116.134 0.655 116.212 0.682 116.266 0.736C116.32 0.79 116.347 0.865 116.347 0.961C116.347 1.063 116.32 1.141 116.266 1.195C116.212 1.249 116.134 1.276 116.032 1.276H113.098V3.49H115.843C115.945 3.49 116.023 3.517 116.077 3.571C116.137 3.625 116.167 3.7 116.167 3.796C116.167 3.898 116.137 3.976 116.077 4.03C116.023 4.084 115.945 4.111 115.843 4.111H113.098V6.658C113.098 6.928 112.984 7.063 112.756 7.063ZM118.843 7.081C118.417 7.081 118.048 6.988 117.736 6.802C117.424 6.616 117.181 6.355 117.007 6.019C116.839 5.677 116.755 5.275 116.755 4.813C116.755 4.465 116.803 4.153 116.899 3.877C116.995 3.595 117.136 3.355 117.322 3.157C117.508 2.959 117.727 2.809 117.979 2.707C118.237 2.599 118.525 2.545 118.843 2.545C119.269 2.545 119.638 2.638 119.95 2.824C120.262 3.01 120.502 3.274 120.67 3.616C120.844 3.952 120.931 4.351 120.931 4.813C120.931 5.161 120.883 5.473 120.787 5.749C120.691 6.025 120.55 6.265 120.364 6.469C120.178 6.667 119.956 6.82 119.698 6.928C119.446 7.03 119.161 7.081 118.843 7.081ZM118.843 6.496C119.113 6.496 119.35 6.43 119.554 6.298C119.758 6.166 119.914 5.974 120.022 5.722C120.136 5.47 120.193 5.167 120.193 4.813C120.193 4.267 120.07 3.85 119.824 3.562C119.584 3.274 119.257 3.13 118.843 3.13C118.567 3.13 118.327 3.196 118.123 3.328C117.925 3.454 117.769 3.643 117.655 3.895C117.547 4.141 117.493 4.447 117.493 4.813C117.493 5.353 117.616 5.77 117.862 6.064C118.108 6.352 118.435 6.496 118.843 6.496ZM123.844 7.081C123.418 7.081 123.049 6.988 122.737 6.802C122.425 6.616 122.182 6.355 122.008 6.019C121.84 5.677 121.756 5.275 121.756 4.813C121.756 4.465 121.804 4.153 121.9 3.877C121.996 3.595 122.137 3.355 122.323 3.157C122.509 2.959 122.728 2.809 122.98 2.707C123.238 2.599 123.526 2.545 123.844 2.545C124.27 2.545 124.639 2.638 124.951 2.824C125.263 3.01 125.503 3.274 125.671 3.616C125.845 3.952 125.932 4.351 125.932 4.813C125.932 5.161 125.884 5.473 125.788 5.749C125.692 6.025 125.551 6.265 125.365 6.469C125.179 6.667 124.957 6.82 124.699 6.928C124.447 7.03 124.162 7.081 123.844 7.081ZM123.844 6.496C124.114 6.496 124.351 6.43 124.555 6.298C124.759 6.166 124.915 5.974 125.023 5.722C125.137 5.47 125.194 5.167 125.194 4.813C125.194 4.267 125.071 3.85 124.825 3.562C124.585 3.274 124.258 3.13 123.844 3.13C123.568 3.13 123.328 3.196 123.124 3.328C122.926 3.454 122.77 3.643 122.656 3.895C122.548 4.141 122.494 4.447 122.494 4.813C122.494 5.353 122.617 5.77 122.863 6.064C123.109 6.352 123.436 6.496 123.844 6.496ZM128.692 7.081C128.302 7.081 127.96 6.988 127.666 6.802C127.378 6.616 127.153 6.355 126.991 6.019C126.835 5.677 126.757 5.275 126.757 4.813C126.757 4.345 126.835 3.943 126.991 3.607C127.153 3.265 127.378 3.004 127.666 2.824C127.96 2.638 128.302 2.545 128.692 2.545C129.088 2.545 129.427 2.644 129.709 2.842C129.991 3.04 130.18 3.307 130.276 3.643H130.177V0.961C130.177 0.841 130.207 0.751 130.267 0.691C130.333 0.625 130.426 0.592 130.546 0.592C130.66 0.592 130.747 0.625 130.807 0.691C130.873 0.751 130.906 0.841 130.906 0.961V6.685C130.906 6.805 130.876 6.898 130.816 6.964C130.756 7.03 130.666 7.063 130.546 7.063C130.432 7.063 130.342 7.03 130.276 6.964C130.216 6.898 130.186 6.805 130.186 6.685V5.83L130.285 5.956C130.189 6.298 129.997 6.571 129.709 6.775C129.427 6.979 129.088 7.081 128.692 7.081ZM128.845 6.496C129.115 6.496 129.352 6.43 129.556 6.298C129.76 6.166 129.916 5.974 130.024 5.722C130.138 5.47 130.195 5.167 130.195 4.813C130.195 4.267 130.072 3.85 129.826 3.562C129.586 3.274 129.259 3.13 128.845 3.13C128.569 3.13 128.329 3.196 128.125 3.328C127.927 3.454 127.771 3.643 127.657 3.895C127.549 4.141 127.495 4.447 127.495 4.813C127.495 5.353 127.618 5.77 127.864 6.064C128.11 6.352 128.437 6.496 128.845 6.496ZM132.625 7.036C132.475 7.036 132.355 6.991 132.265 6.901C132.175 6.805 132.13 6.685 132.13 6.541C132.13 6.397 132.175 6.28 132.265 6.19C132.355 6.094 132.475 6.046 132.625 6.046C132.775 6.046 132.892 6.094 132.976 6.19C133.066 6.28 133.111 6.397 133.111 6.541C133.111 6.685 133.066 6.805 132.976 6.901C132.892 6.991 132.775 7.036 132.625 7.036ZM134.691 7.063C134.571 7.063 134.478 7.03 134.412 6.964C134.352 6.898 134.322 6.805 134.322 6.685V2.932C134.322 2.812 134.352 2.722 134.412 2.662C134.472 2.596 134.559 2.563 134.673 2.563C134.787 2.563 134.874 2.596 134.934 2.662C135 2.722 135.033 2.812 135.033 2.932V3.661H134.943C135.039 3.307 135.222 3.034 135.492 2.842C135.762 2.65 136.095 2.548 136.491 2.536C136.581 2.53 136.653 2.551 136.707 2.599C136.761 2.641 136.791 2.716 136.797 2.824C136.803 2.926 136.779 3.007 136.725 3.067C136.671 3.127 136.587 3.163 136.473 3.175L136.329 3.193C135.921 3.229 135.606 3.361 135.384 3.589C135.168 3.811 135.06 4.117 135.06 4.507V6.685C135.06 6.805 135.027 6.898 134.961 6.964C134.901 7.03 134.811 7.063 134.691 7.063ZM139.095 7.081C138.741 7.081 138.447 7.018 138.213 6.892C137.985 6.76 137.811 6.565 137.691 6.307C137.577 6.049 137.52 5.728 137.52 5.344V2.932C137.52 2.806 137.55 2.713 137.61 2.653C137.676 2.593 137.766 2.563 137.88 2.563C138 2.563 138.09 2.593 138.15 2.653C138.216 2.713 138.249 2.806 138.249 2.932V5.335C138.249 5.719 138.327 6.007 138.483 6.199C138.645 6.385 138.897 6.478 139.239 6.478C139.611 6.478 139.914 6.352 140.148 6.1C140.382 5.848 140.499 5.518 140.499 5.11V2.932C140.499 2.806 140.529 2.713 140.589 2.653C140.655 2.593 140.748 2.563 140.868 2.563C140.982 2.563 141.069 2.593 141.129 2.653C141.195 2.713 141.228 2.806 141.228 2.932V6.685C141.228 6.937 141.111 7.063 140.877 7.063C140.763 7.063 140.673 7.03 140.607 6.964C140.547 6.898 140.517 6.805 140.517 6.685V5.866L140.634 5.992C140.514 6.346 140.316 6.616 140.04 6.802C139.77 6.988 139.455 7.081 139.095 7.081ZM142.565 6.199C142.481 6.169 142.427 6.115 142.403 6.037C142.385 5.953 142.397 5.866 142.439 5.776L143.024 4.615L142.439 3.445C142.403 3.355 142.397 3.271 142.421 3.193C142.445 3.115 142.496 3.058 142.574 3.022C142.646 2.992 142.715 2.989 142.781 3.013C142.847 3.031 142.901 3.076 142.943 3.148L143.663 4.363C143.717 4.447 143.744 4.531 143.744 4.615C143.744 4.693 143.717 4.774 143.663 4.858L142.925 6.082C142.889 6.148 142.835 6.193 142.763 6.217C142.697 6.235 142.631 6.229 142.565 6.199ZM144.194 6.199C144.11 6.169 144.056 6.115 144.032 6.037C144.014 5.953 144.026 5.866 144.068 5.776L144.653 4.615L144.068 3.445C144.032 3.355 144.026 3.271 144.05 3.193C144.074 3.115 144.125 3.058 144.203 3.022C144.275 2.992 144.344 2.989 144.41 3.013C144.476 3.031 144.53 3.076 144.572 3.148L145.292 4.363C145.346 4.447 145.373 4.531 145.373 4.615C145.373 4.693 145.346 4.774 145.292 4.858L144.554 6.082C144.518 6.148 144.464 6.193 144.392 6.217C144.326 6.235 144.26 6.229 144.194 6.199Z" fill="#1A1A1A" stroke="none"/>
</svg>
